<svg width="304" height="37" viewBox="0 0 304 37" fill="none" xmlns="http://www.w3.org/2000/svg">
<path d="M23.0312 27.9844C22.2344 30.6094 20.9297 32.6953 19.1172 34.2422C17.3047 35.7734 15.0234 36.5391 12.2734 36.5391C10.1328 36.5391 8.32031 36.1016 6.83594 35.2266C5.35156 34.3359 4.13281 33.1641 3.17969 31.7109C2.24219 30.2578 1.5625 28.5781 1.14062 26.6719C0.734375 24.7656 0.53125 22.7891 0.53125 20.7422C0.53125 18.6953 0.734375 16.7188 1.14062 14.8125C1.5625 12.9062 2.24219 11.2188 3.17969 9.75C4.13281 8.28125 5.35156 7.10938 6.83594 6.23438C8.32031 5.34375 10.1328 4.89844 12.2734 4.89844C14.1641 4.89844 15.7812 5.23438 17.125 5.90625C18.4688 6.57812 19.4609 7.60156 20.1016 8.97656V5.41406H22.8438V15.4453H20.1016C20.1016 14.3672 19.8906 13.3516 19.4688 12.3984C19.0625 11.4297 18.5078 10.5938 17.8047 9.89062C17.1016 9.1875 16.2656 8.64062 15.2969 8.25C14.3438 7.84375 13.3359 7.64062 12.2734 7.64062C10.6172 7.64062 9.24219 8.03125 8.14844 8.8125C7.07031 9.59375 6.20312 10.6172 5.54688 11.8828C4.89062 13.1484 4.42188 14.5547 4.14062 16.1016C3.875 17.6484 3.74219 19.1953 3.74219 20.7422C3.74219 22.2734 3.875 23.8203 4.14062 25.3828C4.42188 26.9297 4.89062 28.3281 5.54688 29.5781C6.20312 30.8125 7.07031 31.8281 8.14844 32.625C9.24219 33.4062 10.6172 33.7969 12.2734 33.7969C16.0859 33.7969 18.7422 31.4922 20.2422 26.8828L23.0312 27.9844ZM49.6094 25.1484C49.6094 26.8516 49.3359 28.3984 48.7891 29.7891C48.2578 31.1797 47.4844 32.375 46.4688 33.375C45.4688 34.3594 44.2656 35.1328 42.8594 35.6953C41.4531 36.2578 39.8828 36.5391 38.1484 36.5391C36.4453 36.5391 34.8906 36.2578 33.4844 35.6953C32.0781 35.1328 30.8672 34.3594 29.8516 33.375C28.8516 32.375 28.0781 31.1797 27.5312 29.7891C27 28.3984 26.7344 26.8516 26.7344 25.1484C26.7344 23.4922 27 21.9531 27.5312 20.5312C28.0781 19.0938 28.8516 17.875 29.8516 16.875C30.8672 15.8594 32.0781 15.0703 33.4844 14.5078C34.8906 13.9297 36.4453 13.6406 38.1484 13.6406C39.8828 13.6406 41.4531 13.9297 42.8594 14.5078C44.2656 15.0703 45.4688 15.8594 46.4688 16.875C47.4844 17.875 48.2578 19.0938 48.7891 20.5312C49.3359 21.9531 49.6094 23.4922 49.6094 25.1484ZM46.3984 25.1484C46.3984 23.8984 46.2109 22.75 45.8359 21.7031C45.4766 20.6406 44.9375 19.7109 44.2188 18.9141C43.5 18.1172 42.625 17.4922 41.5938 17.0391C40.5781 16.5859 39.4297 16.3594 38.1484 16.3594C36.8672 16.3594 35.7109 16.5859 34.6797 17.0391C33.6641 17.4922 32.8047 18.1172 32.1016 18.9141C31.3984 19.7109 30.8594 20.6406 30.4844 21.7031C30.125 22.75 29.9453 23.8984 29.9453 25.1484C29.9453 26.3984 30.125 27.5547 30.4844 28.6172C30.8594 29.6641 31.3984 30.5703 32.1016 31.3359C32.8047 32.1016 33.6641 32.7031 34.6797 33.1406C35.7109 33.5781 36.8672 33.7969 38.1484 33.7969C39.4297 33.7969 40.5781 33.5781 41.5938 33.1406C42.625 32.7031 43.5 32.1016 44.2188 31.3359C44.9375 30.5703 45.4766 29.6641 45.8359 28.6172C46.2109 27.5547 46.3984 26.3984 46.3984 25.1484ZM74.1016 36H70.8672V33.9844C69.9453 34.8125 68.9297 35.4453 67.8203 35.8828C66.7266 36.3203 65.6016 36.5391 64.4453 36.5391C62.7109 36.5391 61.1562 36.2578 59.7812 35.6953C58.4062 35.1328 57.2422 34.3516 56.2891 33.3516C55.3516 32.3359 54.625 31.125 54.1094 29.7188C53.6094 28.3125 53.3594 26.7734 53.3594 25.1016C53.3594 23.4453 53.6094 21.9141 54.1094 20.5078C54.625 19.0859 55.3516 17.875 56.2891 16.875C57.2422 15.8594 58.4062 15.0703 59.7812 14.5078C61.1562 13.9297 62.7109 13.6406 64.4453 13.6406C65.6016 13.6406 66.7266 13.8516 67.8203 14.2734C68.9297 14.6797 69.9453 15.2969 70.8672 16.125V8.15625H66.5078V5.41406H74.1016V36ZM70.8672 19.2422C69.9453 18.2266 68.9375 17.4922 67.8438 17.0391C66.7656 16.5859 65.6172 16.3594 64.3984 16.3594C63.1172 16.3594 61.9844 16.5859 61 17.0391C60.0312 17.4922 59.2188 18.1094 58.5625 18.8906C57.9062 19.6719 57.4062 20.5938 57.0625 21.6562C56.7344 22.7031 56.5703 23.8516 56.5703 25.1016C56.5703 26.3516 56.7344 27.5078 57.0625 28.5703C57.4062 29.6172 57.9062 30.5312 58.5625 31.3125C59.2188 32.0938 60.0312 32.7109 61 33.1641C61.9844 33.6172 63.1172 33.8438 64.3984 33.8438C66.8672 33.8438 69.0234 32.8672 70.8672 30.9141V19.2422ZM82.8203 26.2031C83.0547 28.5156 83.8984 30.3594 85.3516 31.7344C86.8047 33.1094 88.6953 33.7969 91.0234 33.7969C92.6641 33.7969 94.125 33.4609 95.4062 32.7891C96.6875 32.1172 97.6484 31.2812 98.2891 30.2812L100.539 31.8281C99.4453 33.3594 98.1406 34.5312 96.625 35.3438C95.1094 36.1406 93.2422 36.5391 91.0234 36.5391C89.3359 36.5391 87.7891 36.2578 86.3828 35.6953C84.9766 35.1328 83.7578 34.3516 82.7266 33.3516C81.7109 32.3359 80.9219 31.1328 80.3594 29.7422C79.7969 28.3516 79.5156 26.8047 79.5156 25.1016C79.5156 23.4453 79.7656 21.9219 80.2656 20.5312C80.7812 19.125 81.5156 17.9141 82.4688 16.8984C83.4375 15.8672 84.6094 15.0703 85.9844 14.5078C87.3594 13.9297 88.8984 13.6406 90.6016 13.6406C92.4609 13.6406 94.0859 13.9531 95.4766 14.5781C96.8672 15.2031 98.0234 16.0703 98.9453 17.1797C99.8828 18.2734 100.57 19.5859 101.008 21.1172C101.461 22.6484 101.688 24.3438 101.688 26.2031H82.8203ZM98.2891 23.4609C97.9297 21.0703 97.0625 19.2891 95.6875 18.1172C94.3125 16.9453 92.6172 16.3594 90.6016 16.3594C89.5703 16.3594 88.6172 16.5312 87.7422 16.875C86.8672 17.2031 86.0938 17.6797 85.4219 18.3047C84.75 18.9297 84.1875 19.6875 83.7344 20.5781C83.2812 21.4531 82.9922 22.4141 82.8672 23.4609H98.2891Z" fill="white"/>
<path d="M127.173 19.968L127.317 9.888H126.933L120.213 27.12L113.493 9.888H113.109L113.253 19.968V36H108.501V2.496H115.077L120.213 15.792H120.549L125.733 2.496H131.925V36H127.173V19.968ZM149.522 36.576C147.634 36.576 145.938 36.272 144.434 35.664C142.93 35.056 141.666 34.192 140.642 33.072C139.618 31.952 138.834 30.608 138.29 29.04C137.746 27.44 137.474 25.648 137.474 23.664C137.474 21.68 137.746 19.888 138.29 18.288C138.866 16.688 139.65 15.328 140.642 14.208C141.666 13.056 142.898 12.176 144.338 11.568C145.778 10.96 147.378 10.656 149.138 10.656C150.866 10.656 152.434 10.96 153.842 11.568C155.25 12.144 156.45 12.976 157.442 14.064C158.434 15.152 159.186 16.448 159.698 17.952C160.242 19.456 160.514 21.12 160.514 22.944V24.912H142.754V25.728C142.754 27.68 143.362 29.28 144.578 30.528C145.794 31.744 147.474 32.352 149.618 32.352C151.218 32.352 152.578 32.016 153.698 31.344C154.85 30.64 155.778 29.712 156.482 28.56L159.746 31.44C158.914 32.88 157.634 34.096 155.906 35.088C154.21 36.08 152.082 36.576 149.522 36.576ZM149.138 14.64C148.21 14.64 147.346 14.8 146.546 15.12C145.778 15.44 145.106 15.904 144.53 16.512C143.986 17.088 143.554 17.776 143.234 18.576C142.914 19.376 142.754 20.256 142.754 21.216V21.552H155.186V21.072C155.186 19.12 154.626 17.568 153.506 16.416C152.418 15.232 150.962 14.64 149.138 14.64ZM179.263 36C177.087 36 175.487 35.424 174.463 34.272C173.439 33.088 172.927 31.568 172.927 29.712V15.456H165.295V11.232H170.719C171.647 11.232 172.303 11.056 172.687 10.704C173.071 10.32 173.263 9.648 173.263 8.688V2.496H178.159V11.232H188.719V15.456H178.159V31.776H188.719V36H179.263ZM195.804 31.776H202.38V15.456H195.804V11.232H207.612V17.808H207.9C208.124 16.944 208.444 16.112 208.86 15.312C209.276 14.512 209.804 13.824 210.444 13.248C211.084 12.64 211.868 12.16 212.796 11.808C213.724 11.424 214.812 11.232 216.06 11.232H219.036V16.224H214.14C212.22 16.224 210.652 16.8 209.436 17.952C208.22 19.072 207.612 20.592 207.612 22.512V31.776H216.588V36H195.804V31.776ZM236.874 6.72C235.53 6.72 234.586 6.448 234.042 5.904C233.53 5.36 233.273 4.688 233.273 3.888V2.88C233.273 2.08 233.53 1.408 234.042 0.863997C234.586 0.319999 235.514 0.0479994 236.826 0.0479994C238.17 0.0479994 239.098 0.319999 239.61 0.863997C240.154 1.408 240.426 2.08 240.426 2.88V3.888C240.426 4.688 240.154 5.36 239.61 5.904C239.098 6.448 238.186 6.72 236.874 6.72ZM225.786 31.776H234.234V15.456H225.786V11.232H239.466V31.776H247.385V36H225.786V31.776ZM265.031 36.576C263.175 36.576 261.511 36.272 260.039 35.664C258.599 35.056 257.367 34.192 256.343 33.072C255.351 31.952 254.583 30.592 254.039 28.992C253.527 27.392 253.271 25.6 253.271 23.616C253.271 21.632 253.527 19.84 254.039 18.24C254.583 16.64 255.351 15.28 256.343 14.16C257.367 13.04 258.599 12.176 260.039 11.568C261.511 10.96 263.159 10.656 264.983 10.656C267.543 10.656 269.591 11.2 271.127 12.288C272.695 13.376 273.863 14.784 274.631 16.512L270.551 18.72C270.103 17.568 269.415 16.656 268.487 15.984C267.591 15.312 266.423 14.976 264.983 14.976C262.999 14.976 261.463 15.584 260.375 16.8C259.287 17.984 258.743 19.568 258.743 21.552V25.68C258.743 27.632 259.287 29.216 260.375 30.432C261.463 31.648 263.031 32.256 265.079 32.256C266.615 32.256 267.863 31.904 268.823 31.2C269.815 30.496 270.599 29.536 271.175 28.32L275.015 30.672C274.215 32.4 272.999 33.824 271.367 34.944C269.735 36.032 267.623 36.576 265.031 36.576ZM292.948 36.576C290.26 36.576 287.94 36.144 285.988 35.28C284.068 34.416 282.516 33.264 281.332 31.824L284.548 28.944C285.636 30.128 286.852 31.04 288.196 31.68C289.572 32.288 291.188 32.592 293.044 32.592C294.74 32.592 296.1 32.304 297.124 31.728C298.18 31.152 298.708 30.256 298.708 29.04C298.708 28.528 298.612 28.096 298.42 27.744C298.228 27.392 297.956 27.104 297.604 26.88C297.252 26.656 296.836 26.48 296.356 26.352C295.908 26.224 295.428 26.128 294.916 26.064L290.98 25.44C290.02 25.312 289.044 25.104 288.052 24.816C287.06 24.528 286.164 24.128 285.364 23.616C284.596 23.072 283.956 22.384 283.444 21.552C282.964 20.72 282.724 19.664 282.724 18.384C282.724 15.856 283.684 13.936 285.604 12.624C287.556 11.312 290.116 10.656 293.284 10.656C295.588 10.656 297.572 11.008 299.236 11.712C300.932 12.384 302.34 13.328 303.46 14.544L300.532 17.616C299.892 16.88 298.98 16.208 297.796 15.6C296.612 14.96 295.044 14.64 293.092 14.64C289.604 14.64 287.86 15.744 287.86 17.952C287.86 19.008 288.228 19.744 288.964 20.16C289.732 20.544 290.628 20.8 291.652 20.928L295.588 21.552C296.58 21.712 297.556 21.92 298.516 22.176C299.508 22.432 300.388 22.832 301.156 23.376C301.956 23.888 302.596 24.56 303.076 25.392C303.588 26.224 303.844 27.28 303.844 28.56C303.844 31.056 302.868 33.024 300.916 34.464C298.996 35.872 296.34 36.576 292.948 36.576Z" fill="#30849C"/>
</svg>
