<svg width="361" height="68" viewBox="0 0 361 68" fill="none" xmlns="http://www.w3.org/2000/svg">
<path d="M23.0312 45.9844C22.2344 48.6094 20.9297 50.6953 19.1172 52.2422C17.3047 53.7734 15.0234 54.5391 12.2734 54.5391C10.1328 54.5391 8.32031 54.1016 6.83594 53.2266C5.35156 52.3359 4.13281 51.1641 3.17969 49.7109C2.24219 48.2578 1.5625 46.5781 1.14062 44.6719C0.734375 42.7656 0.53125 40.7891 0.53125 38.7422C0.53125 36.6953 0.734375 34.7188 1.14062 32.8125C1.5625 30.9062 2.24219 29.2188 3.17969 27.75C4.13281 26.2812 5.35156 25.1094 6.83594 24.2344C8.32031 23.3438 10.1328 22.8984 12.2734 22.8984C14.1641 22.8984 15.7812 23.2344 17.125 23.9062C18.4688 24.5781 19.4609 25.6016 20.1016 26.9766V23.4141H22.8438V33.4453H20.1016C20.1016 32.3672 19.8906 31.3516 19.4688 30.3984C19.0625 29.4297 18.5078 28.5938 17.8047 27.8906C17.1016 27.1875 16.2656 26.6406 15.2969 26.25C14.3438 25.8438 13.3359 25.6406 12.2734 25.6406C10.6172 25.6406 9.24219 26.0312 8.14844 26.8125C7.07031 27.5938 6.20312 28.6172 5.54688 29.8828C4.89062 31.1484 4.42188 32.5547 4.14062 34.1016C3.875 35.6484 3.74219 37.1953 3.74219 38.7422C3.74219 40.2734 3.875 41.8203 4.14062 43.3828C4.42188 44.9297 4.89062 46.3281 5.54688 47.5781C6.20312 48.8125 7.07031 49.8281 8.14844 50.625C9.24219 51.4062 10.6172 51.7969 12.2734 51.7969C16.0859 51.7969 18.7422 49.4922 20.2422 44.8828L23.0312 45.9844ZM49.6094 43.1484C49.6094 44.8516 49.3359 46.3984 48.7891 47.7891C48.2578 49.1797 47.4844 50.375 46.4688 51.375C45.4688 52.3594 44.2656 53.1328 42.8594 53.6953C41.4531 54.2578 39.8828 54.5391 38.1484 54.5391C36.4453 54.5391 34.8906 54.2578 33.4844 53.6953C32.0781 53.1328 30.8672 52.3594 29.8516 51.375C28.8516 50.375 28.0781 49.1797 27.5312 47.7891C27 46.3984 26.7344 44.8516 26.7344 43.1484C26.7344 41.4922 27 39.9531 27.5312 38.5312C28.0781 37.0938 28.8516 35.875 29.8516 34.875C30.8672 33.8594 32.0781 33.0703 33.4844 32.5078C34.8906 31.9297 36.4453 31.6406 38.1484 31.6406C39.8828 31.6406 41.4531 31.9297 42.8594 32.5078C44.2656 33.0703 45.4688 33.8594 46.4688 34.875C47.4844 35.875 48.2578 37.0938 48.7891 38.5312C49.3359 39.9531 49.6094 41.4922 49.6094 43.1484ZM46.3984 43.1484C46.3984 41.8984 46.2109 40.75 45.8359 39.7031C45.4766 38.6406 44.9375 37.7109 44.2188 36.9141C43.5 36.1172 42.625 35.4922 41.5938 35.0391C40.5781 34.5859 39.4297 34.3594 38.1484 34.3594C36.8672 34.3594 35.7109 34.5859 34.6797 35.0391C33.6641 35.4922 32.8047 36.1172 32.1016 36.9141C31.3984 37.7109 30.8594 38.6406 30.4844 39.7031C30.125 40.75 29.9453 41.8984 29.9453 43.1484C29.9453 44.3984 30.125 45.5547 30.4844 46.6172C30.8594 47.6641 31.3984 48.5703 32.1016 49.3359C32.8047 50.1016 33.6641 50.7031 34.6797 51.1406C35.7109 51.5781 36.8672 51.7969 38.1484 51.7969C39.4297 51.7969 40.5781 51.5781 41.5938 51.1406C42.625 50.7031 43.5 50.1016 44.2188 49.3359C44.9375 48.5703 45.4766 47.6641 45.8359 46.6172C46.2109 45.5547 46.3984 44.3984 46.3984 43.1484ZM74.1016 54H70.8672V51.9844C69.9453 52.8125 68.9297 53.4453 67.8203 53.8828C66.7266 54.3203 65.6016 54.5391 64.4453 54.5391C62.7109 54.5391 61.1562 54.2578 59.7812 53.6953C58.4062 53.1328 57.2422 52.3516 56.2891 51.3516C55.3516 50.3359 54.625 49.125 54.1094 47.7188C53.6094 46.3125 53.3594 44.7734 53.3594 43.1016C53.3594 41.4453 53.6094 39.9141 54.1094 38.5078C54.625 37.0859 55.3516 35.875 56.2891 34.875C57.2422 33.8594 58.4062 33.0703 59.7812 32.5078C61.1562 31.9297 62.7109 31.6406 64.4453 31.6406C65.6016 31.6406 66.7266 31.8516 67.8203 32.2734C68.9297 32.6797 69.9453 33.2969 70.8672 34.125V26.1562H66.5078V23.4141H74.1016V54ZM70.8672 37.2422C69.9453 36.2266 68.9375 35.4922 67.8438 35.0391C66.7656 34.5859 65.6172 34.3594 64.3984 34.3594C63.1172 34.3594 61.9844 34.5859 61 35.0391C60.0312 35.4922 59.2188 36.1094 58.5625 36.8906C57.9062 37.6719 57.4062 38.5938 57.0625 39.6562C56.7344 40.7031 56.5703 41.8516 56.5703 43.1016C56.5703 44.3516 56.7344 45.5078 57.0625 46.5703C57.4062 47.6172 57.9062 48.5312 58.5625 49.3125C59.2188 50.0938 60.0312 50.7109 61 51.1641C61.9844 51.6172 63.1172 51.8438 64.3984 51.8438C66.8672 51.8438 69.0234 50.8672 70.8672 48.9141V37.2422ZM82.8203 44.2031C83.0547 46.5156 83.8984 48.3594 85.3516 49.7344C86.8047 51.1094 88.6953 51.7969 91.0234 51.7969C92.6641 51.7969 94.125 51.4609 95.4062 50.7891C96.6875 50.1172 97.6484 49.2812 98.2891 48.2812L100.539 49.8281C99.4453 51.3594 98.1406 52.5312 96.625 53.3438C95.1094 54.1406 93.2422 54.5391 91.0234 54.5391C89.3359 54.5391 87.7891 54.2578 86.3828 53.6953C84.9766 53.1328 83.7578 52.3516 82.7266 51.3516C81.7109 50.3359 80.9219 49.1328 80.3594 47.7422C79.7969 46.3516 79.5156 44.8047 79.5156 43.1016C79.5156 41.4453 79.7656 39.9219 80.2656 38.5312C80.7812 37.125 81.5156 35.9141 82.4688 34.8984C83.4375 33.8672 84.6094 33.0703 85.9844 32.5078C87.3594 31.9297 88.8984 31.6406 90.6016 31.6406C92.4609 31.6406 94.0859 31.9531 95.4766 32.5781C96.8672 33.2031 98.0234 34.0703 98.9453 35.1797C99.8828 36.2734 100.57 37.5859 101.008 39.1172C101.461 40.6484 101.688 42.3438 101.688 44.2031H82.8203ZM98.2891 41.4609C97.9297 39.0703 97.0625 37.2891 95.6875 36.1172C94.3125 34.9453 92.6172 34.3594 90.6016 34.3594C89.5703 34.3594 88.6172 34.5312 87.7422 34.875C86.8672 35.2031 86.0938 35.6797 85.4219 36.3047C84.75 36.9297 84.1875 37.6875 83.7344 38.5781C83.2812 39.4531 82.9922 40.4141 82.8672 41.4609H98.2891Z" fill="white"/>
<path d="M127.173 37.968L127.317 27.888H126.933L120.213 45.12L113.493 27.888H113.109L113.253 37.968V54H108.501V20.496H115.077L120.213 33.792H120.549L125.733 20.496H131.925V54H127.173V37.968ZM149.522 54.576C147.634 54.576 145.938 54.272 144.434 53.664C142.93 53.056 141.666 52.192 140.642 51.072C139.618 49.952 138.834 48.608 138.29 47.04C137.746 45.44 137.474 43.648 137.474 41.664C137.474 39.68 137.746 37.888 138.29 36.288C138.866 34.688 139.65 33.328 140.642 32.208C141.666 31.056 142.898 30.176 144.338 29.568C145.778 28.96 147.378 28.656 149.138 28.656C150.866 28.656 152.434 28.96 153.842 29.568C155.25 30.144 156.45 30.976 157.442 32.064C158.434 33.152 159.186 34.448 159.698 35.952C160.242 37.456 160.514 39.12 160.514 40.944V42.912H142.754V43.728C142.754 45.68 143.362 47.28 144.578 48.528C145.794 49.744 147.474 50.352 149.618 50.352C151.218 50.352 152.578 50.016 153.698 49.344C154.85 48.64 155.778 47.712 156.482 46.56L159.746 49.44C158.914 50.88 157.634 52.096 155.906 53.088C154.21 54.08 152.082 54.576 149.522 54.576ZM149.138 32.64C148.21 32.64 147.346 32.8 146.546 33.12C145.778 33.44 145.106 33.904 144.53 34.512C143.986 35.088 143.554 35.776 143.234 36.576C142.914 37.376 142.754 38.256 142.754 39.216V39.552H155.186V39.072C155.186 37.12 154.626 35.568 153.506 34.416C152.418 33.232 150.962 32.64 149.138 32.64ZM179.263 54C177.087 54 175.487 53.424 174.463 52.272C173.439 51.088 172.927 49.568 172.927 47.712V33.456H165.295V29.232H170.719C171.647 29.232 172.303 29.056 172.687 28.704C173.071 28.32 173.263 27.648 173.263 26.688V20.496H178.159V29.232H188.719V33.456H178.159V49.776H188.719V54H179.263ZM195.804 49.776H202.38V33.456H195.804V29.232H207.612V35.808H207.9C208.124 34.944 208.444 34.112 208.86 33.312C209.276 32.512 209.804 31.824 210.444 31.248C211.084 30.64 211.868 30.16 212.796 29.808C213.724 29.424 214.812 29.232 216.06 29.232H219.036V34.224H214.14C212.22 34.224 210.652 34.8 209.436 35.952C208.22 37.072 207.612 38.592 207.612 40.512V49.776H216.588V54H195.804V49.776ZM236.874 24.72C235.53 24.72 234.586 24.448 234.042 23.904C233.53 23.36 233.273 22.688 233.273 21.888V20.88C233.273 20.08 233.53 19.408 234.042 18.864C234.586 18.32 235.514 18.048 236.826 18.048C238.17 18.048 239.098 18.32 239.61 18.864C240.154 19.408 240.426 20.08 240.426 20.88V21.888C240.426 22.688 240.154 23.36 239.61 23.904C239.098 24.448 238.186 24.72 236.874 24.72ZM225.786 49.776H234.234V33.456H225.786V29.232H239.466V49.776H247.385V54H225.786V49.776ZM265.031 54.576C263.175 54.576 261.511 54.272 260.039 53.664C258.599 53.056 257.367 52.192 256.343 51.072C255.351 49.952 254.583 48.592 254.039 46.992C253.527 45.392 253.271 43.6 253.271 41.616C253.271 39.632 253.527 37.84 254.039 36.24C254.583 34.64 255.351 33.28 256.343 32.16C257.367 31.04 258.599 30.176 260.039 29.568C261.511 28.96 263.159 28.656 264.983 28.656C267.543 28.656 269.591 29.2 271.127 30.288C272.695 31.376 273.863 32.784 274.631 34.512L270.551 36.72C270.103 35.568 269.415 34.656 268.487 33.984C267.591 33.312 266.423 32.976 264.983 32.976C262.999 32.976 261.463 33.584 260.375 34.8C259.287 35.984 258.743 37.568 258.743 39.552V43.68C258.743 45.632 259.287 47.216 260.375 48.432C261.463 49.648 263.031 50.256 265.079 50.256C266.615 50.256 267.863 49.904 268.823 49.2C269.815 48.496 270.599 47.536 271.175 46.32L275.015 48.672C274.215 50.4 272.999 51.824 271.367 52.944C269.735 54.032 267.623 54.576 265.031 54.576ZM292.948 54.576C290.26 54.576 287.94 54.144 285.988 53.28C284.068 52.416 282.516 51.264 281.332 49.824L284.548 46.944C285.636 48.128 286.852 49.04 288.196 49.68C289.572 50.288 291.188 50.592 293.044 50.592C294.74 50.592 296.1 50.304 297.124 49.728C298.18 49.152 298.708 48.256 298.708 47.04C298.708 46.528 298.612 46.096 298.42 45.744C298.228 45.392 297.956 45.104 297.604 44.88C297.252 44.656 296.836 44.48 296.356 44.352C295.908 44.224 295.428 44.128 294.916 44.064L290.98 43.44C290.02 43.312 289.044 43.104 288.052 42.816C287.06 42.528 286.164 42.128 285.364 41.616C284.596 41.072 283.956 40.384 283.444 39.552C282.964 38.72 282.724 37.664 282.724 36.384C282.724 33.856 283.684 31.936 285.604 30.624C287.556 29.312 290.116 28.656 293.284 28.656C295.588 28.656 297.572 29.008 299.236 29.712C300.932 30.384 302.34 31.328 303.46 32.544L300.532 35.616C299.892 34.88 298.98 34.208 297.796 33.6C296.612 32.96 295.044 32.64 293.092 32.64C289.604 32.64 287.86 33.744 287.86 35.952C287.86 37.008 288.228 37.744 288.964 38.16C289.732 38.544 290.628 38.8 291.652 38.928L295.588 39.552C296.58 39.712 297.556 39.92 298.516 40.176C299.508 40.432 300.388 40.832 301.156 41.376C301.956 41.888 302.596 42.56 303.076 43.392C303.588 44.224 303.844 45.28 303.844 46.56C303.844 49.056 302.868 51.024 300.916 52.464C298.996 53.872 296.34 54.576 292.948 54.576Z" fill="#30849C"/>
</svg>
